<svg version="1.1"
     baseProfile="full"
     width="300" height="200"
     xmlns="http://www.w3.org/2000/svg">

<linearGradient id="Gradient" x1="0" x2="0" y1="0" y2="1">
        <stop offset="0%" stop-color="red"/>
        <stop offset="50%" stop-color="yellow" stop-opacity="0.5"/>
        <stop offset="100%" stop-color="blue"/>
</linearGradient>
<!-- <radialGradient id="Radial" x1="0" x2="0" y1="0" y2="1">
        <stop offset="0%" stop-color="red"/>
        <stop offset="50%" stop-color="yellow" stop-opacity="0.5"/>
        <stop offset="100%" stop-color="blue"/>
</radialGradient> -->

<rect x="0" y="0" width="500" height="500" fill="black"></rect>

<!-- <polyline points="300 75 123 287" fill="url(#Gradient)" stroke="green" stroke-width="1"></polyline> -->

<!-- body -->
<path d="M300 75 C 300 75, 455 30, 325 150 C 325 150, 375 325, 123 287 C 123 287, 200 170, 300 75" 
     fill="url(#Gradient)" stroke-width="1">
</path>

<!-- feet -->
<!-- <polyline points="230 317 200 330 230 350" stroke="green" stroke-width="1"></polyline>

<line x1="230" y1="317" x2="230" y2="400" stroke="url(#Gradient)" stroke-width="1"></line>
<line x1="230" y1="400" x2="240" y2="410" stroke="url(#Gradient)" stroke-width="1"></line>
<line x1="230" y1="400" x2="220" y2="410" stroke="url(#Gradient)" stroke-width="1"></line>

<line x1="255" y1="319" x2="255" y2="400" stroke="url(#Gradient)" stroke-width="1"></line>
<line x1="255" y1="350" x2="265" y2="358" stroke="url(#Gradient)" stroke-width="1"></line>
<line x1="255" y1="350" x2="245" y2="358" stroke="url(#Gradient)" stroke-width="1"></line> -->


<!-- beak -->
<path d="M370 70 L460 36, 375 75 A 5 15 75 0 1 370 70"
    fill="yellow"  fill-opacity="0.6" stroke-width="1">
</path>

<!-- wings -->
<path d="M265 175 C 265 175, 325 120, 30 80 C 50 165, 250 300, 265 175" 
    fill="url(#Gradient)"  fill-opacity="1" stroke-width="1">
</path>

<!-- tail -->
<path d="M130 270, C 130 270, 100 250, 40 200 C 40 200, 115 260 ,70 200" 
    fill="url(#Gradient)" stroke-width="1">
</path>

<!-- eye -->
<path d="M325 90, C 325 90, 350 115, 335 85" stroke="black" fill-opacity="0" 
    stroke-width="2">
</path>

</svg>